<svg xmlns="http://www.w3.org/2000/svg" xmlns:xlink="http://www.w3.org/1999/xlink"><defs><style>
    .sprite-symbol-usage {display: none;}
    .sprite-symbol-usage:target {display: inline;}
  </style><symbol fill="none" viewBox="0 0 31 30" id="arrow"><path d="m16.337 6.947 7.147 7.115H4.468v1.876h19.016l-7.147 7.115 1.33 1.322L27.094 15l-9.427-9.375-1.33 1.322z" fill="currentColor" /></symbol><symbol fill="none" viewBox="0 0 30 31" id="calc"><g clip-path="url(#calc_a)"><path d="M7.2 18.168c.46 0 .9-.186 1.226-.517.325-.332.507-.781.507-1.25 0-.468-.182-.918-.507-1.249a1.717 1.717 0 0 0-1.226-.517c-.46 0-.9.186-1.226.517-.325.331-.507.78-.507 1.25 0 .468.182.917.507 1.249.325.331.766.517 1.226.517zm0 5.3c.46 0 .9-.186 1.226-.517.325-.331.507-.78.507-1.25 0-.468-.182-.917-.507-1.248a1.717 1.717 0 0 0-1.226-.518c-.46 0-.9.186-1.226.518-.325.33-.507.78-.507 1.249 0 .468.182.918.507 1.25.325.33.766.517 1.226.517zm4.554-5.427a9.734 9.734 0 0 1 2.041-2.69 1.73 1.73 0 0 0-.868-.64 1.699 1.699 0 0 0-1.071.003c-.348.117-.65.343-.864.646a1.786 1.786 0 0 0-.325 1.041c0 .353.103.698.297.99.193.292.468.519.79.65zm-5.42 8.961h5.39c.32.633.707 1.225 1.15 1.767h-6.54a4.292 4.292 0 0 1-3.065-1.294A4.46 4.46 0 0 1 2 24.352V4.917a4.46 4.46 0 0 1 1.27-3.123A4.292 4.292 0 0 1 6.332.5h12.134c1.149 0 2.251.465 3.064 1.294A4.46 4.46 0 0 1 22.8 4.917V13.2a9.34 9.34 0 0 0-1.733-.327V4.917c0-.703-.274-1.377-.762-1.874a2.575 2.575 0 0 0-1.838-.776H6.333c-.69 0-1.35.279-1.838.776a2.676 2.676 0 0 0-.762 1.874v19.435c0 .703.274 1.377.762 1.874a2.575 2.575 0 0 0 1.838.776zM5.466 6.684c0-.703.274-1.377.761-1.874a2.575 2.575 0 0 1 1.839-.776h8.666c.69 0 1.351.279 1.839.776.487.497.761 1.171.761 1.874V8.45c0 .703-.274 1.377-.761 1.874a2.575 2.575 0 0 1-1.839.776H8.067c-.69 0-1.351-.28-1.839-.776a2.676 2.676 0 0 1-.761-1.874V6.684zm2.6-.884c-.23 0-.45.094-.613.26a.892.892 0 0 0-.254.624V8.45c0 .234.091.459.254.624a.858.858 0 0 0 .613.26h8.666c.23 0 .45-.094.613-.26a.892.892 0 0 0 .254-.624V6.684a.892.892 0 0 0-.254-.625.859.859 0 0 0-.613-.259H8.067zM25.4 19.016c.23 0 .45-.093.613-.258a.892.892 0 0 0 .254-.625v-3.534a.892.892 0 0 0-.254-.624.858.858 0 0 0-1.226 0 .892.892 0 0 0-.254.624v1.34a7.688 7.688 0 0 0-4.907-1.319 7.727 7.727 0 0 0-4.664 2.038 7.993 7.993 0 0 0-2.447 4.532 8.085 8.085 0 0 0 .806 5.107 7.862 7.862 0 0 0 3.718 3.52c1.59.72 3.37.875 5.056.445a7.789 7.789 0 0 0 4.254-2.82A8.049 8.049 0 0 0 28 22.55a.892.892 0 0 0-.254-.625.859.859 0 0 0-1.226 0 .892.892 0 0 0-.253.625 6.261 6.261 0 0 1-1.263 3.775 6.06 6.06 0 0 1-3.261 2.204 5.96 5.96 0 0 1-3.903-.284 6.107 6.107 0 0 1-2.921-2.653 6.286 6.286 0 0 1-.725-3.92 6.227 6.227 0 0 1 1.774-3.555 6.02 6.02 0 0 1 3.535-1.711 5.973 5.973 0 0 1 3.824.844h-1.394c-.23 0-.45.093-.613.258a.892.892 0 0 0 0 1.25.858.858 0 0 0 .613.258H25.4z" fill="currentColor" /></g><defs></defs></symbol><clipPath id="calc_a"><path fill="currentColor" transform="translate(0 .5)" d="M0 0h30v30H0z" /></clipPath><symbol fill="none" viewBox="0 0 24 24" id="chevrone"><path d="M12 14.975a1.03 1.03 0 0 1-.7-.275l-4.6-4.6a.948.948 0 0 1-.275-.7c0-.284.091-.517.275-.7a.948.948 0 0 1 .7-.275c.283 0 .516.091.7.275l3.9 3.9 3.9-3.9a.948.948 0 0 1 .7-.275c.283 0 .516.091.7.275a.948.948 0 0 1 .275.7.948.948 0 0 1-.275.7l-4.6 4.6c-.1.1-.208.17-.325.212a1.1 1.1 0 0 1-.375.063z" fill="currentColor" /></symbol><symbol fill="none" viewBox="0 0 32 32" id="mail"><path d="M5.333 26.667c-.733 0-1.36-.261-1.882-.783A2.57 2.57 0 0 1 2.667 24V8c0-.733.261-1.36.784-1.883a2.565 2.565 0 0 1 1.882-.784h21.334c.733 0 1.361.262 1.884.784.521.522.782 1.15.782 1.883v16c0 .733-.26 1.361-.782 1.884a2.571 2.571 0 0 1-1.884.783H5.333zm21.334-16L16.7 16.9a1.369 1.369 0 0 1-.35.15c-.122.033-.239.05-.35.05-.111 0-.228-.017-.35-.05a1.369 1.369 0 0 1-.35-.15l-9.967-6.233V24h21.334V10.667zm-10.667 4L26.667 8H5.333L16 14.667zM5.333 11V9.034v.033-.018V11z" fill="currentColor" /></symbol><symbol fill="none" viewBox="0 0 33 36" id="menu"><path d="M5.672 27.297h21.656m-21.656-8.75h21.656M5.672 9.797h21.656" stroke="currentColor" stroke-width="3" stroke-linecap="round" stroke-linejoin="round" /></symbol><symbol fill="none" viewBox="0 0 29 29" id="phone"><path d="M21.75 11.781h-1.813a2.721 2.721 0 0 0-2.718-2.719V7.25a4.536 4.536 0 0 1 4.531 4.531z" fill="currentColor" /><path d="M25.375 11.781h-1.812a6.35 6.35 0 0 0-6.344-6.344V3.625a8.165 8.165 0 0 1 8.156 8.156zm-1.812 14.5h-.154C5.6 25.257 3.072 10.231 2.719 5.646a2.719 2.719 0 0 1 2.719-2.927h4.776a1.812 1.812 0 0 1 1.685 1.142l1.378 3.389a1.812 1.812 0 0 1-.399 1.957l-1.93 1.949a8.483 8.483 0 0 0 6.87 6.887l1.966-1.948a1.813 1.813 0 0 1 1.966-.372l3.417 1.369a1.812 1.812 0 0 1 1.114 1.686v4.785a2.718 2.718 0 0 1-2.718 2.718zM5.438 4.531a.906.906 0 0 0-.907.979c.417 5.365 3.09 18.053 18.977 18.959a.907.907 0 0 0 .96-.85v-4.841l-3.416-1.369-2.6 2.583-.436-.055c-7.884-.987-8.953-8.872-8.953-8.953l-.055-.435 2.574-2.601-1.36-3.417H5.439z" fill="currentColor" /></symbol><symbol fill="none" viewBox="0 0 48 40" id="quote"><path d="M14.848 19.904c1.877.768 3.328 2.005 4.352 3.712 1.11 1.621 1.664 3.584 1.664 5.888 0 3.072-.981 5.59-2.944 7.552C15.957 39.02 13.525 40 10.624 40c-3.072 0-5.59-.981-7.552-2.944-1.963-1.963-2.944-4.48-2.944-7.552 0-1.536.17-3.03.512-4.48.427-1.45 1.195-3.627 2.304-6.528L9.728.32h10.24l-5.12 19.584zm27.136 0c1.877.768 3.328 2.005 4.352 3.712C47.446 25.237 48 27.2 48 29.504c0 3.072-.981 5.59-2.944 7.552C43.093 39.02 40.66 40 37.76 40c-3.072 0-5.59-.981-7.552-2.944-1.963-1.963-2.944-4.48-2.944-7.552 0-1.536.17-3.03.512-4.48.427-1.45 1.195-3.627 2.304-6.528L36.864.32h10.24l-5.12 19.584z" fill="currentColor" /></symbol><symbol fill="none" viewBox="0 0 23 23" id="search"><g clip-path="url(#search_a)"><path d="m.21 21.766 6.984-7.027a8.984 8.984 0 1 1 6.898 3.23 8.947 8.947 0 0 1-5.89-2.205l-6.975 7.018A.719.719 0 0 1 .21 21.766zm13.882-5.223a7.559 7.559 0 1 0 0-15.117 7.559 7.559 0 0 0 0 15.117z" fill="currentColor" /></g><defs></defs></symbol><clipPath id="search_a"><path fill="#fff" transform="matrix(-1 0 0 1 23 0)" d="M0 0h23v23H0z" /></clipPath><symbol fill="none" viewBox="0 0 29 29" id="telegram"><g clip-path="url(#telegram_a)"><path d="M14.5 0a14.5 14.5 0 1 0 0 29 14.5 14.5 0 0 0 0-29zm4.611 21.97a1.021 1.021 0 0 1-1.453.51l-3.937-3.059-2.526 2.332a.435.435 0 0 1-.413.056l.485-4.334.014.013.01-.085s7.083-6.45 7.372-6.724c.293-.274.196-.333.196-.333.017-.334-.524 0-.524 0L8.95 16.384l-3.907-1.332s-.6-.214-.657-.688c-.06-.47.676-.725.676-.725L20.6 7.465s1.277-.569 1.277.374L19.11 21.97z" fill="#0067A5" /></g><defs></defs></symbol><clipPath id="telegram_a"><path fill="#fff" d="M0 0h29v29H0z" /></clipPath><symbol fill="none" viewBox="0 0 29 29" id="vk"><g clip-path="url(#vk_a)"><path d="M14.5 0C6.492 0 0 6.492 0 14.5S6.492 29 14.5 29 29 22.508 29 14.5 22.508 0 14.5 0zm5.576 16.36s1.283 1.265 1.598 1.853c.01.012.014.024.017.03.129.216.159.384.095.509-.106.208-.468.311-.592.32H18.93c-.157 0-.487-.04-.886-.316-.306-.214-.608-.566-.903-.909-.44-.51-.82-.952-1.204-.952a.46.46 0 0 0-.143.023c-.29.094-.662.508-.662 1.61 0 .345-.271.543-.463.543H13.63c-.353 0-2.195-.124-3.826-1.845-1.997-2.107-3.794-6.333-3.81-6.372-.112-.273.122-.42.377-.42h2.288c.305 0 .405.186.474.35.082.192.381.955.872 1.813.796 1.399 1.284 1.966 1.675 1.966.073 0 .146-.02.21-.054.51-.284.415-2.104.393-2.482 0-.07-.002-.814-.263-1.17-.187-.258-.506-.357-.7-.393a.83.83 0 0 1 .301-.255c.35-.175.982-.201 1.609-.201h.349c.68.01.854.053 1.1.115.5.12.51.44.466 1.542-.014.313-.027.666-.027 1.083 0 .09-.005.187-.005.29-.015.56-.033 1.196.363 1.457.051.033.111.05.172.05.137 0 .551 0 1.672-1.922a14.67 14.67 0 0 0 .899-1.925c.022-.039.089-.16.167-.207a.4.4 0 0 1 .188-.043h2.69c.293 0 .494.043.531.157.067.18-.012.728-1.24 2.39l-.548.724c-1.113 1.46-1.113 1.533.07 2.64z" fill="#0067A5" /></g><defs></defs></symbol><clipPath id="vk_a"><path fill="#fff" d="M0 0h29v29H0z" /></clipPath><symbol fill="none" viewBox="0 0 20 20" id="x"><path d="M20 1.75 18.25 0 10 8.25 1.75 0 0 1.75 8.25 10 0 18.25 1.75 20 10 11.75 18.25 20 20 18.25 11.75 10 20 1.75z" fill="currentColor" /></symbol></defs><use id="arrow-usage" xlink:href="#arrow" class="sprite-symbol-usage" /><use id="calc-usage" xlink:href="#calc" class="sprite-symbol-usage" /><use id="chevrone-usage" xlink:href="#chevrone" class="sprite-symbol-usage" /><use id="mail-usage" xlink:href="#mail" class="sprite-symbol-usage" /><use id="menu-usage" xlink:href="#menu" class="sprite-symbol-usage" /><use id="phone-usage" xlink:href="#phone" class="sprite-symbol-usage" /><use id="quote-usage" xlink:href="#quote" class="sprite-symbol-usage" /><use id="search-usage" xlink:href="#search" class="sprite-symbol-usage" /><use id="telegram-usage" xlink:href="#telegram" class="sprite-symbol-usage" /><use id="vk-usage" xlink:href="#vk" class="sprite-symbol-usage" /><use id="x-usage" xlink:href="#x" class="sprite-symbol-usage" /></svg>