<svg width="30" height="31" fill="none" xmlns="http://www.w3.org/2000/svg"><g clip-path="url(#a)"><path d="M7.2 18.168c.46 0 .9-.186 1.226-.517.325-.332.507-.781.507-1.25 0-.468-.182-.918-.507-1.249a1.717 1.717 0 0 0-1.226-.517c-.46 0-.9.186-1.226.517-.325.331-.507.78-.507 1.25 0 .468.182.917.507 1.249.325.331.766.517 1.226.517zm0 5.3c.46 0 .9-.186 1.226-.517.325-.331.507-.78.507-1.25 0-.468-.182-.917-.507-1.248a1.717 1.717 0 0 0-1.226-.518c-.46 0-.9.186-1.226.518-.325.33-.507.78-.507 1.249 0 .468.182.918.507 1.25.325.33.766.517 1.226.517zm4.554-5.427a9.734 9.734 0 0 1 2.041-2.69 1.73 1.73 0 0 0-.868-.64 1.699 1.699 0 0 0-1.071.003c-.348.117-.65.343-.864.646a1.786 1.786 0 0 0-.325 1.041c0 .353.103.698.297.99.193.292.468.519.79.65zm-5.42 8.961h5.39c.32.633.707 1.225 1.15 1.767h-6.54a4.292 4.292 0 0 1-3.065-1.294A4.46 4.46 0 0 1 2 24.352V4.917a4.46 4.46 0 0 1 1.27-3.123A4.292 4.292 0 0 1 6.332.5h12.134c1.149 0 2.251.465 3.064 1.294A4.46 4.46 0 0 1 22.8 4.917V13.2a9.34 9.34 0 0 0-1.733-.327V4.917c0-.703-.274-1.377-.762-1.874a2.575 2.575 0 0 0-1.838-.776H6.333c-.69 0-1.35.279-1.838.776a2.676 2.676 0 0 0-.762 1.874v19.435c0 .703.274 1.377.762 1.874a2.575 2.575 0 0 0 1.838.776zM5.466 6.684c0-.703.274-1.377.761-1.874a2.575 2.575 0 0 1 1.839-.776h8.666c.69 0 1.351.279 1.839.776.487.497.761 1.171.761 1.874V8.45c0 .703-.274 1.377-.761 1.874a2.575 2.575 0 0 1-1.839.776H8.067c-.69 0-1.351-.28-1.839-.776a2.676 2.676 0 0 1-.761-1.874V6.684zm2.6-.884c-.23 0-.45.094-.613.26a.892.892 0 0 0-.254.624V8.45c0 .234.091.459.254.624a.858.858 0 0 0 .613.26h8.666c.23 0 .45-.094.613-.26a.892.892 0 0 0 .254-.624V6.684a.892.892 0 0 0-.254-.625.859.859 0 0 0-.613-.259H8.067zM25.4 19.016c.23 0 .45-.093.613-.258a.892.892 0 0 0 .254-.625v-3.534a.892.892 0 0 0-.254-.624.858.858 0 0 0-1.226 0 .892.892 0 0 0-.254.624v1.34a7.688 7.688 0 0 0-4.907-1.319 7.727 7.727 0 0 0-4.664 2.038 7.993 7.993 0 0 0-2.447 4.532 8.085 8.085 0 0 0 .806 5.107 7.862 7.862 0 0 0 3.718 3.52c1.59.72 3.37.875 5.056.445a7.789 7.789 0 0 0 4.254-2.82A8.049 8.049 0 0 0 28 22.55a.892.892 0 0 0-.254-.625.859.859 0 0 0-1.226 0 .892.892 0 0 0-.253.625 6.261 6.261 0 0 1-1.263 3.775 6.06 6.06 0 0 1-3.261 2.204 5.96 5.96 0 0 1-3.903-.284 6.107 6.107 0 0 1-2.921-2.653 6.286 6.286 0 0 1-.725-3.92 6.227 6.227 0 0 1 1.774-3.555 6.02 6.02 0 0 1 3.535-1.711 5.973 5.973 0 0 1 3.824.844h-1.394c-.23 0-.45.093-.613.258a.892.892 0 0 0 0 1.25.858.858 0 0 0 .613.258H25.4z" fill="currentColor"/></g><defs><clipPath id="a"><path fill="currentColor" transform="translate(0 .5)" d="M0 0h30v30H0z"/></clipPath></defs></svg>