<svg width="36" height="36" fill="none" xmlns="http://www.w3.org/2000/svg"><g clip-path="url(#a)"><path d="M18 0C7.971 0 0 7.971 0 18s7.971 18 18 18 18-7.971 18-18S28.029 0 18 0zm0 33.429C9.514 33.429 2.571 26.486 2.571 18S9.514 2.571 18 2.571 33.429 9.514 33.429 18 26.486 33.429 18 33.429z" fill="#AFAFAF"/><path d="M24.943 27 18 20.057 11.057 27 9 24.943 15.943 18 9 11.057 11.057 9 18 15.943 24.943 9 27 11.057 20.057 18 27 24.943 24.943 27z" fill="#D9453F"/></g><defs><clipPath id="a"><path fill="#fff" d="M0 0h36v36H0z"/></clipPath></defs></svg>