<svg fill="none" height="67" width="383" xmlns="http://www.w3.org/2000/svg"><g clip-rule="evenodd" fill-rule="evenodd"><path d="M63.308 15.512c0 .086-10.331 16.58-11.647 22.28-.047.165-.08.309-.108.444l.174.061 1.305.465c2.59-8.046 11.932-23.001 12.48-23.961.598-1.024.816-1.46.816-1.46a10.528 10.528 0 0 1-3.02 2.171zm-.996.401c.309.075-10.423 13.543-11.847 20.668-.083.405-.111.82-.082 1.234l-8.517-3.035c-2.024-1.264-3.898-2.145-5.145-2.085a3.36 3.36 0 0 0-.511.065l-1.4-.5c4.405-5.003 11.284-12.485 9.276-13.466-.053-.019-.456-.259-.267.146.373.67-5.952 8.47-9.747 13.056l-1.18-.42c4.19-5.104 9.764-11.91 10.002-12.409a5.896 5.896 0 0 0 .553-1.723c.042-.26 7.915 2.591 14.345 1.286 2.163-.43 2.21-1.446 2.21-1.446s-4.298 2.457-15.822-.332c-.65-.137-.619.06-.703.065-.076-.016.06-.34-.214-.935a8.501 8.501 0 0 0-.544-.963s8.094 4.276 19.585.79z" fill="#056ca5"/><path d="m41.893 34.771 8.498 3.035c.037.679.28 1.33.693 1.868.24-.453.4-.945.473-1.453l1.486.53c-.224.684-.405 1.381-.541 2.088-.346 1.964 0 2.327-.424 1.944a83.75 83.75 0 0 0-10.184-8.012m-7.088-2.524c-.521.592-1.007 1.147-1.438 1.657a10.8 10.8 0 0 1-.954 1.037 5.255 5.255 0 0 1 1.091-.209c5.364-.023 14.959 11.215 18.166 14.326 1.579 1.505 5.115 4.4 5.05 4.331-4.387-5.088-4.501-8.433-4.501-8.433s-9.761-8.078-11.767-9.397a12.685 12.685 0 0 0-5.529-1.962 1.843 1.843 0 0 1 1.278-.852zm-1.922-.688 1.181.424c-1.606 1.937-2.758 3.3-2.758 3.3-.671.317-1.316.688-1.928 1.11-.36.281-.738.54-1.131.774 0 0 2.056-2.485 4.63-5.608" fill="#056ca5"/><path d="m38.139 23.746-.017-.01.027-.006z" fill="#e77169"/></g><path d="M14.783 42.4c-.677.812-1.638 1.678-1.654 1.736.55-.412 1.123-.792 1.715-1.14.933-.526 1.322-.563 1.34-.639.33-.544.688-1.072 1.071-1.58 7.755-9.443 9.632-11.588 11.781-15.018a1.286 1.286 0 0 1-.028 1.496 113.548 113.548 0 0 1-7.932 10.52c-.411.518-1.407 1.71-1.783 2.192a8.587 8.587 0 0 0-1.227 1.893c.9-.142 1.821.041 2.599.517 7.797 3.867 16.81 13.752 17.303 14.29.694.81 3.96 3.58 3.96 3.58s-3.781-4.294-4.54-8.408c-.01-.148-12.03-10.56-16.812-11.542-.041 0 .203-.255.731-.445.862-.296 2.462-.402 4.784 1.125 8.457 5.599 10.694 7.964 11.476 9.038.118.15.042-.782.659-2.535.425-1.232 2.735-6.431 2.735-6.431l-1.904-1.476a2.93 2.93 0 0 1-.18.474c-2.05 4.496-2.53 6.374-2.649 6.293a2.036 2.036 0 0 1-.827-1.042 2.469 2.469 0 0 1-.087-1.25c.078-.445.21-.879.394-1.292.158-.488 1.686-4.16 1.686-4.16a18.372 18.372 0 0 0-3.662-2.221 1.667 1.667 0 0 0-1.063.02 8.1 8.1 0 0 0-1.407.673c-.699.397-2.175 1.328-2.534 1.555-.44.278-.928.47-1.44.562-.354-.048-.826-.164-.972-.448-.137-.307-.048-.531.154-1.002a18.184 18.184 0 0 1 1.978-2.55c3.167-3.467 7.512-8.902 7.458-8.92h-.048a24.45 24.45 0 0 1-5.942-1.125 2.63 2.63 0 0 1-1.132-.602s.46 1.057-14 17.867" fill="#d9453f"/><path clip-rule="evenodd" d="M31.087 23.143a16.68 16.68 0 0 1-2.116-.484l2.756 1.508c2.279.318 4.878.856 5.24.946.185-.168.355-.354.506-.554l-1.482-.809c-1.08-.07-2.654-.236-4.904-.61" fill="#d9453f" fill-rule="evenodd"/><path d="M28.718 23.949a15.84 15.84 0 0 1 3.042.222l-2.729-1.49a11.223 11.223 0 0 1-1.212-.417s.866 1.705.9 1.685z" fill="#d9453f"/><path d="M69.371 44.15a34.512 34.512 0 0 1-2.12 4.908 35.12 35.12 0 0 1-1.373 2.377 36.418 36.418 0 0 1-10.652 10.838c.78-.216 1.546-.481 2.292-.795a21.287 21.287 0 0 0 6.551-4.476 28.496 28.496 0 0 0 3.927-4.565 38.358 38.358 0 0 0 1.366-2.38 36.945 36.945 0 0 0 2.145-4.898l-.274.745a28.643 28.643 0 0 0 1.284-6.48c.175-1.792.14-3.6-.101-5.385a22.02 22.02 0 0 0-1.533-5.523 37.999 37.999 0 0 1-.38 11.49 36.782 36.782 0 0 1-1.132 4.145zM16.164 17.494a34.537 34.537 0 0 1 5.604-5.813 36.365 36.365 0 0 1 13.516-6.93c-.808-.041-1.618-.03-2.425.033a21.269 21.269 0 0 0-7.625 2.183 28.425 28.425 0 0 0-5.161 3.09 36.96 36.96 0 0 0-2.044 1.829 37.166 37.166 0 0 0-3.576 3.974 29.402 29.402 0 0 0-2.757 5.128 23.571 23.571 0 0 0-1.596 5.145 22.04 22.04 0 0 0-.28 5.73 37.972 37.972 0 0 1 3.972-10.786 36.96 36.96 0 0 1 2.372-3.583z" fill="#056ca5"/><path d="M39.674 17.012c.027 0 .028-3.81 0-3.81-.03 0-.03 3.81 0 3.81z" fill="#fff"/><path d="M169.832 24.195h1.371c.8.077 1.602-.12 2.275-.56a1.828 1.828 0 0 0 .653-1.437 1.998 1.998 0 0 0-.571-1.45 2.907 2.907 0 0 0-2.134-.599h-1.594zm-84.29-7.73v18.138h5.276l6.787-9.961v9.961h5.262V16.464h-5.226l-6.823 10.033V16.465zm78.668 0h9.302a6.363 6.363 0 0 1 4.555 1.445 5.447 5.447 0 0 1 1.513 4.12 5.591 5.591 0 0 1-1.654 4.294 7.134 7.134 0 0 1-5.034 1.55h-3.064v6.73h-5.616zm-18.259 0h15.003v3.869h-9.392v2.886h8.712v3.703h-8.712v3.57h9.664v4.11h-15.275zm-19.537 0h17.012v4.478h-5.711v13.66h-5.596v-13.66h-5.708zm-19.782 0h5.6v6.343h6.117v-6.343h5.621v18.138h-5.621v-7.336h-6.117v7.336h-5.6z" fill="#056ca5"/><path d="M241.002 16.46V34.6h5.589V20.914h6.152V34.6h5.585V16.46zm21.047 0V34.6h15.269v-4.112h-9.661v-3.575h8.709v-3.697h-8.709V20.33h9.387v-3.87zm23.88 3.684h1.595a2.925 2.925 0 0 1 2.136.599 2.01 2.01 0 0 1 .563 1.446 1.81 1.81 0 0 1-.647 1.44 3.52 3.52 0 0 1-2.274.566h-1.373zm-5.62-3.683V34.6h5.62v-6.732h3.062a7.15 7.15 0 0 0 5.038-1.548 5.59 5.59 0 0 0 1.654-4.293 5.47 5.47 0 0 0-.326-2.221 5.426 5.426 0 0 0-1.193-1.9 6.36 6.36 0 0 0-4.55-1.445zm17.026 0v4.482h5.708V34.6h5.591V20.943h5.712V16.46zm31.655 0-6.827 10.031V16.461h-5.275V34.6h5.275l6.79-9.957V34.6h5.26V16.46zm34.344 4.697 2.009 6.523h-3.999zm-2.99-4.697L353.538 34.6h5.721l.877-2.995h6.38l.887 2.995h5.859l-6.812-18.14zm-146.159.182a3.788 3.788 0 0 0-2.09 1.065 8.111 8.111 0 0 0-1.271 2.431 12.39 12.39 0 0 1-1.274 2.771 1.493 1.493 0 0 1-1.136.519V16.46h-5.586V34.6h5.586v-7.174a1.619 1.619 0 0 1 1.196.415 8.054 8.054 0 0 1 1.214 2.07l2.175 4.689h6.304l-2.46-4.963a13.185 13.185 0 0 0-1.916-3.025 5.037 5.037 0 0 0-2.113-1.368 3.527 3.527 0 0 0 1.401-.957 6.034 6.034 0 0 0 .957-1.824 3.862 3.862 0 0 1 1.139-1.757 3.396 3.396 0 0 1 2.127-.545h.282v-3.833a22.888 22.888 0 0 0-4.534.32m-32.16 4.073 5.044 1.918a3.21 3.21 0 0 1 3.308-2.272c2.126 0 3.367 1.165 3.722 3.495h-5.491v3.367h5.463c-.306 2.323-1.536 3.477-3.663 3.477a3.377 3.377 0 0 1-3.522-2.797l-5.266 1.42a8.136 8.136 0 0 0 2.954 4.03 10.058 10.058 0 0 0 6.04 1.553 9.07 9.07 0 0 0 6.775-2.46 9.665 9.665 0 0 0 2.407-7.046c.076-1.245-.101-2.492-.52-3.666s-1.072-2.251-1.92-3.165a9.473 9.473 0 0 0-6.976-2.428c-4.068 0-6.852 1.523-8.351 4.569m41.01-2.147a9.425 9.425 0 0 0-2.391 6.923 10.279 10.279 0 0 0 1.36 5.543 7.733 7.733 0 0 0 3.231 3.03c1.53.624 3.174.915 4.825.855a9.832 9.832 0 0 0 4.01-.71 6.807 6.807 0 0 0 2.641-2.087 9.085 9.085 0 0 0 1.554-3.457l-4.904-1.484a5.622 5.622 0 0 1-1.193 2.622 3.598 3.598 0 0 1-4.997-.217 6.815 6.815 0 0 1-.919-4.14 6.514 6.514 0 0 1 .771-3.577 3.522 3.522 0 0 1 4.436-1.183c.455.233.848.573 1.146.99.245.372.429.782.544 1.213l4.941-1.1a8.107 8.107 0 0 0-2.906-4.26 10.857 10.857 0 0 0-12.149 1.032m114.088 2.298 5.004.58a1.97 1.97 0 0 1 .751-1.31 1.958 1.958 0 0 1 1.457-.387c1.229 0 1.844.491 1.846 1.473a2.035 2.035 0 0 1-.616 1.564 2.41 2.41 0 0 1-1.688.567h-1.195v3.235h1.519a3.155 3.155 0 0 1 2.058.632 2.01 2.01 0 0 1 .754 1.628 2.129 2.129 0 0 1-.59 1.615 2.425 2.425 0 0 1-1.772.586 2.299 2.299 0 0 1-1.639-.445 2.31 2.31 0 0 1-.89-1.448l-5.291.396c1.034 3.568 3.675 5.354 7.924 5.359a8.749 8.749 0 0 0 5.771-1.708 5.402 5.402 0 0 0 2.046-4.357 3.93 3.93 0 0 0-.844-2.68 3.917 3.917 0 0 0-2.417-1.427 3.808 3.808 0 0 0 1.761-1.504 3.823 3.823 0 0 0 .567-2.247 4.09 4.09 0 0 0-1.918-3.528 9.252 9.252 0 0 0-5.285-1.314c-4.064 0-6.503 1.573-7.318 4.72" fill="#d9453f"/><path d="M153.212 54.32c.038 0 .039-5.05 0-5.05s-.037 5.05 0 5.05z" fill="#fff"/><path d="M370.204 47.055h-1.181l.591-2.164zm.791-4.36h-2.342l-2.244 7.43h1.807l.438-1.472h1.927l.403 1.471h2.274zm-13.823 0v7.43h2.205v-5.691h1.708v5.69h2.214v-7.428zm-9.879 0v7.43h2.213v-5.691h1.709v5.69h2.212v-7.428zm-9.841 0 2.581 5.351a.784.784 0 0 1-.284.37.825.825 0 0 1-.515.151 3.916 3.916 0 0 1-.889-.118v1.656c.36.085.729.13 1.1.133a2.191 2.191 0 0 0 1.802-.71c.366-.48.654-1.014.855-1.583l2.244-5.253h-1.949l-1.182 2.936h-.021l-1.299-2.936zm-6.562 3.077v-1.45h.827a.944.944 0 0 1 .685.227c.12.143.183.325.179.512a.753.753 0 0 1-.212.508.987.987 0 0 1-.652.207zm-2.214-3.076v7.428h2.214v-2.676h1.047a2.712 2.712 0 0 0 2.521-1.116 2.58 2.58 0 0 0 .331-1.291 2.145 2.145 0 0 0-1.071-1.962 4.182 4.182 0 0 0-2.133-.377zm-8.065 0v7.428h2.212v-5.69h2.717v-1.738zm-8.42 1.675v1.368h-1.015a.933.933 0 0 1-.635-.2.584.584 0 0 1-.21-.489.647.647 0 0 1 .21-.51c.188-.123.411-.183.635-.169zm2.213-1.672h-3.648a3.197 3.197 0 0 0-1.68.39 2.201 2.201 0 0 0-.959 1.932 1.979 1.979 0 0 0 1.434 2.076l-1.601 3.03h2.342l1.239-2.774h.666v2.771h2.213zm-12.432 4.36h-1.181l.591-2.165zm.791-4.36h-2.344l-2.245 7.429h1.815l.43-1.471h1.931l.402 1.47h2.281zm-11.434 4.463h1.075a.836.836 0 0 1 .613.212c.113.126.173.29.167.46a.65.65 0 0 1-.18.464.736.736 0 0 1-.6.206h-1.075zm0-2.84h.896a.91.91 0 0 1 .644.177.531.531 0 0 1 .178.444.63.63 0 0 1-.162.454.83.83 0 0 1-.619.181h-.937zm-2.217-1.626v7.428h3.905a2.514 2.514 0 0 0 1.815-.592 2.086 2.086 0 0 0 .566-1.505 1.605 1.605 0 0 0-.558-1.341 1.85 1.85 0 0 0-.844-.404v-.018a1.59 1.59 0 0 0 .926-.647c.195-.312.297-.673.295-1.041a1.772 1.772 0 0 0-.547-1.356 2.61 2.61 0 0 0-1.879-.522zm-6.862 1.524a.916.916 0 0 1 .844.603c.195.492.278 1.021.244 1.55a3.75 3.75 0 0 1-.244 1.575.886.886 0 0 1-1.688 0 3.715 3.715 0 0 1-.237-1.576 3.549 3.549 0 0 1 .244-1.549.919.919 0 0 1 .844-.603m0-1.627a3.29 3.29 0 0 0-2.204.745 3.793 3.793 0 0 0-1.248 3.077 3.913 3.913 0 0 0 1.106 2.945 3.16 3.16 0 0 0 2.346.878 3.285 3.285 0 0 0 2.51-1.004 4.233 4.233 0 0 0 .936-2.82 3.93 3.93 0 0 0-1.109-2.966 3.33 3.33 0 0 0-2.341-.852m-11.187.103v7.429h2.21v-5.694h2.718v-1.738zm-3.744 0h-2.22v2.774h-1.71v-2.777h-2.209v7.428h2.209v-2.921h1.71v2.921h2.219zm-16.02 0v7.429h2.213v-.562l1.483-2.827c.124-.251.219-.515.284-.788a7.344 7.344 0 0 0-.059 1.079v3.094h2.215v-7.428h-2.215v.545l-1.485 2.84c-.124.252-.22.518-.285.792.05-.357.071-.718.062-1.078v-3.1zm-8.311 0v1.738h1.498v5.69h2.217v-5.693h1.493v-1.738zm-8.244 0-.011.653c-.012.71-.066 2.283-.109 2.89-.074.994-.199 1.744-.633 2.052a1.029 1.029 0 0 1-.525.169.606.606 0 0 1-.146-.012v1.677c.207.08.428.118.65.112a1.9 1.9 0 0 0 1.454-.606c.601-.8.932-1.77.945-2.772.085-.782.093-1.42.129-2.425h1.182v5.69h2.217v-7.431zm-7.088 4.36h-1.182l.591-2.165zm.789-4.36h-2.341l-2.244 7.429h1.811l.433-1.471h1.927l.404 1.47h2.278zm-7.234 2.828a3.014 3.014 0 0 0-.827-2.054 3.067 3.067 0 0 0-2.271-.877 3.12 3.12 0 0 0-2.195.788 3.959 3.959 0 0 0-1.181 3.1 4.505 4.505 0 0 0 .422 2.01 3.087 3.087 0 0 0 2.953 1.744 2.993 2.993 0 0 0 2.222-.845 3.1 3.1 0 0 0 .876-1.992l-2.025-.129a1.628 1.628 0 0 1-.202.775.854.854 0 0 1-.813.521.9.9 0 0 1-.869-.647 3.68 3.68 0 0 1-.205-1.497c-.022-.475.035-.95.169-1.406.179-.518.455-.782.905-.782a.894.894 0 0 1 .837.577c.092.263.139.54.138.82zm-9.889-2.828h-2.214v2.774h-1.716v-2.777h-2.21v7.428h2.21v-2.921h1.716v2.921h2.214zm-13.004 1.524a.905.905 0 0 1 .84.604c.197.491.28 1.02.244 1.549a3.671 3.671 0 0 1-.244 1.576.888.888 0 0 1-.842.617.881.881 0 0 1-.842-.617 3.732 3.732 0 0 1-.237-1.576 3.56 3.56 0 0 1 .237-1.55.907.907 0 0 1 .844-.603zm0-1.627a3.294 3.294 0 0 0-2.204.746 3.808 3.808 0 0 0-1.248 3.076 3.915 3.915 0 0 0 1.11 2.945 3.136 3.136 0 0 0 2.342.878 3.286 3.286 0 0 0 2.514-1.008 4.234 4.234 0 0 0 .938-2.82 3.947 3.947 0 0 0-1.109-2.966 3.35 3.35 0 0 0-2.343-.85zm-12.654.103v7.429h2.212v-3h.393a.812.812 0 0 1 .652.225c.145.212.237.455.27.71.255 1.227.361 1.755.75 2.055h2.207a4.207 4.207 0 0 1-.636-1.677 4.1 4.1 0 0 0-.787-1.817 1.678 1.678 0 0 0-.888-.425v-.041a1.023 1.023 0 0 0 .794-.509c.194-.349.331-.726.408-1.118l.204-.71c.096-.412.283-.798.546-1.13h-2.009c-.152.049-.299.17-.417.504-.081.237-.145.524-.354 1.302-.249.946-.568 1.024-.918 1.024h-.21v-2.828zm-3.206 3.6h-2.683v1.707h2.683zm-9.009-2.076a.916.916 0 0 1 .848.604c.19.493.271 1.021.236 1.549a3.813 3.813 0 0 1-.236 1.576.89.89 0 0 1-.844.617.887.887 0 0 1-.844-.617 3.686 3.686 0 0 1-.243-1.576 3.532 3.532 0 0 1 .243-1.55.917.917 0 0 1 .84-.603zm0-1.627a3.306 3.306 0 0 0-2.205.746 3.809 3.809 0 0 0-1.239 3.076 3.896 3.896 0 0 0 1.105 2.945 3.132 3.132 0 0 0 2.339.878 3.287 3.287 0 0 0 2.514-1.003 4.24 4.24 0 0 0 .937-2.82 3.945 3.945 0 0 0-1.108-2.966 3.361 3.361 0 0 0-2.343-.856zm-12.653.103v7.429h2.219v-3h.389a.806.806 0 0 1 .651.225c.146.211.24.455.274.71.255 1.227.362 1.755.749 2.055h2.203a4.137 4.137 0 0 1-.636-1.677 4.049 4.049 0 0 0-.788-1.817 1.689 1.689 0 0 0-.887-.425v-.041a1.026 1.026 0 0 0 .792-.509 3.72 3.72 0 0 0 .408-1.118l.204-.71a2.9 2.9 0 0 1 .548-1.13h-2.009c-.15.049-.296.17-.413.504-.083.237-.149.524-.355 1.302-.251.946-.568 1.024-.917 1.024h-.207v-2.828zm-3.291 2.828a3.01 3.01 0 0 0-.82-2.054 3.064 3.064 0 0 0-2.281-.877 3.12 3.12 0 0 0-2.195.788 3.958 3.958 0 0 0-1.182 3.099c-.016.695.13 1.384.427 2.012a3.08 3.08 0 0 0 2.953 1.743 3.001 3.001 0 0 0 2.225-.845c.52-.537.83-1.244.873-1.992l-2.026-.129c-.002.27-.068.537-.195.775a.857.857 0 0 1-.815.521.91.91 0 0 1-.878-.647 3.766 3.766 0 0 1-.196-1.497c-.024-.475.033-.95.169-1.406.173-.518.449-.782.905-.782a.883.883 0 0 1 .827.577c.094.263.141.54.138.82zm-13.35.252v-1.456h.827a.944.944 0 0 1 .684.226c.12.143.184.325.181.512a.728.728 0 0 1-.213.508.982.982 0 0 1-.652.207zm-2.218-3.076v7.428h2.218v-2.683h1.046a2.701 2.701 0 0 0 2.519-1.116 2.64 2.64 0 0 0 .34-1.291 2.152 2.152 0 0 0-1.079-1.962 4.191 4.191 0 0 0-2.132-.377zm-6.861 1.524a.911.911 0 0 1 .84.603c.199.491.282 1.021.245 1.55a3.64 3.64 0 0 1-.245 1.575.895.895 0 0 1-.84.62.904.904 0 0 1-.848-.62 3.78 3.78 0 0 1-.236-1.576 3.607 3.607 0 0 1 .236-1.549.923.923 0 0 1 .848-.603zm0-1.627a3.287 3.287 0 0 0-2.202.745 3.792 3.792 0 0 0-1.246 3.077 3.901 3.901 0 0 0 1.107 2.945 3.137 3.137 0 0 0 2.341.878 3.273 3.273 0 0 0 2.505-1.004 4.215 4.215 0 0 0 .945-2.82 3.944 3.944 0 0 0-1.106-2.966 3.354 3.354 0 0 0-2.342-.859m-11.435.103v1.738h1.498v5.69h2.209v-5.693h1.5v-1.738zm-9.234 0v7.429h2.213v-.562l1.486-2.828c.121-.253.217-.517.285-.788a6.6 6.6 0 0 0-.064 1.079v3.094h2.213v-7.427h-2.213v.545l-1.486 2.84a4.275 4.275 0 0 0-.285.792c.05-.357.071-.718.064-1.078v-3.1zm-7.393 1.738h1.181v3.916h-1.818c.189-.435.334-.888.434-1.351.129-.65.198-1.312.203-1.975zm-1.708-1.738v1.052c.015.921-.053 1.841-.202 2.75a5.81 5.81 0 0 1-.624 1.852h-.523v3.295h2.008v-1.524h3.072v1.524h2.008V48.35h-.637v-5.653zm-10.602 0 2.585 5.35a.843.843 0 0 1-.282.37.826.826 0 0 1-.518.151 3.942 3.942 0 0 1-.887-.118v1.657c.36.084.727.129 1.096.132a2.191 2.191 0 0 0 1.802-.71 5.66 5.66 0 0 0 .858-1.583l2.244-5.252h-1.951l-1.182 2.935h-.018l-1.3-2.935zm-5.552 4.36h-1.182l.59-2.165zm.788-4.36h-2.34l-2.245 7.429h1.814l.431-1.471h1.927l.404 1.47h2.273z" fill="#056ca5"/></svg>