<svg width="32" height="32" fill="none" xmlns="http://www.w3.org/2000/svg"><path d="M5.333 26.667c-.733 0-1.36-.261-1.882-.783A2.57 2.57 0 0 1 2.667 24V8c0-.733.261-1.36.784-1.883a2.565 2.565 0 0 1 1.882-.784h21.334c.733 0 1.361.262 1.884.784.521.522.782 1.15.782 1.883v16c0 .733-.26 1.361-.782 1.884a2.571 2.571 0 0 1-1.884.783H5.333zm21.334-16L16.7 16.9a1.369 1.369 0 0 1-.35.15c-.122.033-.239.05-.35.05-.111 0-.228-.017-.35-.05a1.369 1.369 0 0 1-.35-.15l-9.967-6.233V24h21.334V10.667zm-10.667 4L26.667 8H5.333L16 14.667zM5.333 11V9.034v.033-.018V11z" fill="currentColor"/></svg>