<svg width="29" height="29" fill="none" xmlns="http://www.w3.org/2000/svg"><path d="M21.75 11.781h-1.813a2.721 2.721 0 0 0-2.718-2.719V7.25a4.536 4.536 0 0 1 4.531 4.531z" fill="currentColor"/><path d="M25.375 11.781h-1.812a6.35 6.35 0 0 0-6.344-6.344V3.625a8.165 8.165 0 0 1 8.156 8.156zm-1.812 14.5h-.154C5.6 25.257 3.072 10.231 2.719 5.646a2.719 2.719 0 0 1 2.719-2.927h4.776a1.812 1.812 0 0 1 1.685 1.142l1.378 3.389a1.812 1.812 0 0 1-.399 1.957l-1.93 1.949a8.483 8.483 0 0 0 6.87 6.887l1.966-1.948a1.813 1.813 0 0 1 1.966-.372l3.417 1.369a1.812 1.812 0 0 1 1.114 1.686v4.785a2.718 2.718 0 0 1-2.718 2.718zM5.438 4.531a.906.906 0 0 0-.907.979c.417 5.365 3.09 18.053 18.977 18.959a.907.907 0 0 0 .96-.85v-4.841l-3.416-1.369-2.6 2.583-.436-.055c-7.884-.987-8.953-8.872-8.953-8.953l-.055-.435 2.574-2.601-1.36-3.417H5.439z" fill="currentColor"/></svg>