<svg width="48" height="40" fill="none" xmlns="http://www.w3.org/2000/svg"><path d="M14.848 19.904c1.877.768 3.328 2.005 4.352 3.712 1.11 1.621 1.664 3.584 1.664 5.888 0 3.072-.981 5.59-2.944 7.552C15.957 39.02 13.525 40 10.624 40c-3.072 0-5.59-.981-7.552-2.944-1.963-1.963-2.944-4.48-2.944-7.552 0-1.536.17-3.03.512-4.48.427-1.45 1.195-3.627 2.304-6.528L9.728.32h10.24l-5.12 19.584zm27.136 0c1.877.768 3.328 2.005 4.352 3.712C47.446 25.237 48 27.2 48 29.504c0 3.072-.981 5.59-2.944 7.552C43.093 39.02 40.66 40 37.76 40c-3.072 0-5.59-.981-7.552-2.944-1.963-1.963-2.944-4.48-2.944-7.552 0-1.536.17-3.03.512-4.48.427-1.45 1.195-3.627 2.304-6.528L36.864.32h10.24l-5.12 19.584z" fill="currentColor"/></svg>