<svg width="29" height="29" fill="none" xmlns="http://www.w3.org/2000/svg"><g clip-path="url(#a)"><path d="M14.5 0a14.5 14.5 0 1 0 0 29 14.5 14.5 0 0 0 0-29zm4.611 21.97a1.021 1.021 0 0 1-1.453.51l-3.937-3.059-2.526 2.332a.435.435 0 0 1-.413.056l.485-4.334.014.013.01-.085s7.083-6.45 7.372-6.724c.293-.274.196-.333.196-.333.017-.334-.524 0-.524 0L8.95 16.384l-3.907-1.332s-.6-.214-.657-.688c-.06-.47.676-.725.676-.725L20.6 7.465s1.277-.569 1.277.374L19.11 21.97z" fill="#0067A5"/></g><defs><clipPath id="a"><path fill="#fff" d="M0 0h29v29H0z"/></clipPath></defs></svg>