<svg width="29" height="29" fill="none" xmlns="http://www.w3.org/2000/svg"><g clip-path="url(#a)"><path d="M14.5 0C6.492 0 0 6.492 0 14.5S6.492 29 14.5 29 29 22.508 29 14.5 22.508 0 14.5 0zm5.576 16.36s1.283 1.265 1.598 1.853c.01.012.014.024.017.03.129.216.159.384.095.509-.106.208-.468.311-.592.32H18.93c-.157 0-.487-.04-.886-.316-.306-.214-.608-.566-.903-.909-.44-.51-.82-.952-1.204-.952a.46.46 0 0 0-.143.023c-.29.094-.662.508-.662 1.61 0 .345-.271.543-.463.543H13.63c-.353 0-2.195-.124-3.826-1.845-1.997-2.107-3.794-6.333-3.81-6.372-.112-.273.122-.42.377-.42h2.288c.305 0 .405.186.474.35.082.192.381.955.872 1.813.796 1.399 1.284 1.966 1.675 1.966.073 0 .146-.02.21-.054.51-.284.415-2.104.393-2.482 0-.07-.002-.814-.263-1.17-.187-.258-.506-.357-.7-.393a.83.83 0 0 1 .301-.255c.35-.175.982-.201 1.609-.201h.349c.68.01.854.053 1.1.115.5.12.51.44.466 1.542-.014.313-.027.666-.027 1.083 0 .09-.005.187-.005.29-.015.56-.033 1.196.363 1.457.051.033.111.05.172.05.137 0 .551 0 1.672-1.922a14.67 14.67 0 0 0 .899-1.925c.022-.039.089-.16.167-.207a.4.4 0 0 1 .188-.043h2.69c.293 0 .494.043.531.157.067.18-.012.728-1.24 2.39l-.548.724c-1.113 1.46-1.113 1.533.07 2.64z" fill="#0067A5"/></g><defs><clipPath id="a"><path fill="#fff" d="M0 0h29v29H0z"/></clipPath></defs></svg>